<svg xmlns="http://www.w3.org/2000/svg" viewBox="0 0 512 512">
  <path fill="#2eb85c" d="M256 48C141.1 48 48 141.1 48 256s93.1 208 208 208 208-93.1 208-208S370.9 48 256 48zm0 374.6c-20.5 0-39.8-4-57.7-11.3l.8-1.3c5.9-9.3 21.1-35 28.7-48 9.1-15.7 18.1-31.3 27-47 8.8-15.4 17.5-30.6 26-45.9 10.7 18.2 21.2 36.7 31.5 55.3 7.7 13.9 22.2 39.5 29.2 52.4l.8 1.5c-18.8 7.8-39.2 12.3-60.8 12.3zm142.3-53.6c-4 7.4-8.3 14.5-12.8 21.3-6.8-12.5-21.6-38.7-28.8-51.7-9.8-17.8-19.8-35.6-30.1-53.1-9.2 15.7-18.3 31.2-27.3 46.6-8.8 15.2-17.8 30.8-26.7 46.3-7.3 12.6-23 40.6-28.7 50.2-5.4-7.3-10.4-15-15-23-9.7-16.8-17.6-35.1-23.2-54.4 9.2-15.5 18.2-30.9 27-46 8.6-14.8 17.3-29.9 25.7-44.9 9.7 16.7 19.3 33.3 28.8 49.8 10.1 17.5 19.9 34.6 29.5 51.7 9.1 15.7 18.2 31.2 27.2 46.5 8.3 14.2 16.8 28.8 25.3 43.5 8.9 15.3 17.8 30.5 26.7 45.8 7 12 15.7 26.8 21.5 37.1 4.9-7.7 9.4-15.7 13.5-24 8.1-16.5 14.3-34 18.4-52.3-11.3-19.2-22.4-38.7-33.4-57.9-7.8-13.6-21.6-37.8-29.5-51.6zm38-109.2c-4.7-18.5-12-36-21.4-52 6.8 11.6 20.7 35.6 27.4 47.5 10.9 19.1 21.6 38.2 31.9 57.5 8 14.4 15.9 28.8 23.6 43 1.9 3.4 5 9 7 12.5 1.3-6.7 2.4-13.6 3.2-20.5 2.2-18.3 2.2-36.8 0-55.1-5.5-9.8-19.5-33.6-27.2-46.9-9.8-17.3-19.7-34.6-29.4-51.9-8.1 13.8-15.9 28.1-23.6 42.4-8.4 15.2-17 30.4-25.3 45.9-8.3 14.7-16.6 29.4-24.8 44.1-9.2 16.5-18.3 32.7-27.3 48.9-9.7-17.2-19.4-34.1-28.8-50.8-8.1-14.5-16.4-29.1-24.4-43.4-8.2-14.6-16.5-29.2-24.6-43.8-8.8 15.1-17.7 30.3-26.6 45.6-7.7 13.3-21.9 37.9-29.3 51-9.8 17.3-19.6 34.5-29.2 51.5-7.4-13.2-14.7-26.4-21.9-39.5-6.2-11.2-19.4-34.7-25.5-45.8-10.3-18.6-20.4-37.3-30.3-55.7-8.2 14.7-16.3 29.5-24.4 44.3-7.2 13.2-20.6 37.4-27.6 50.3-9.4-16.1-16.9-33.5-21.9-51.9 8.9-15.7 17.6-31.1 26.3-46.4 8.8-15.5 17.7-30.9 26.3-46 7.8-13.5 21.5-37.6 29-50.9 9.8-17.3 19.7-34.6 29.3-51.7 8.4 14.9 16.8 29.9 25 45 8.7 16 17.5 31.8 26 47.6 8.4-14.5 16.8-29 25.1-43.4 7.9-13.7 22-38.5 29.5-51.7 10.1-17.6 20-35.3 29.7-52.7 8 14.2 15.9 28.6 23.7 42.9 9.1 16.5 18.2 32.8 27.1 49 9.3-16.3 18.3-32.6 27.4-48.6 7.9-13.9 22-38.9 29.7-52.6zm-50.4-73.9c18.4 7.6 35.3 18.7 50 32.8-10.1 17.6-20.1 35.2-29.8 52.6-7.6 13.6-21.2 37.9-28.8 51.4-9 15.7-17.8 31.3-26.7 46.8-9.6-17.1-19.2-34.1-28.5-51-8.5-15.5-16.9-30.9-25.3-46.3-9.4-17.3-18.8-34.5-28-51.5-7.7 13.5-15.5 27.3-23 41.1-8.2 15.1-16.4 30.2-24.4 45.3-7.9 14.4-15.8 28.7-23.7 43-9.4-16.6-18.6-33.1-27.8-49.4-8.1-14.3-16.1-28.8-24.2-43.2-8.4 14.9-16.7 29.9-24.9 44.8-8.2 14.9-16.3 29.9-24.4 44.9-8.8-15.9-17.6-31.7-26.2-47.4-7.5-13.8-20.9-38.4-28.1-51.6-10-18.2-19.9-36.5-29.6-54.5 14.7-14 31.3-25.2 49.4-32.9 11.9 21.7 23.7 43.6 35.4 65.4 6 11.1 18.9 34.6 24.9 45.8 8.9 16.3 17.8 32.7 26.5 48.9 8.7-15.9 17.2-31.8 25.7-47.5 7.7-14.1 21.7-39.9 29.3-54 10.3-18.9 20.5-37.9 30.5-56.6 7.3 13.3 14.5 26.8 21.7 40.2 8 14.9 16.1 29.8 23.9 44.7 9.7-16.7 19.3-33.5 28.7-50.1 7.7-13.6 21.5-38.1 29-51.5 9.8-17.3 19.5-34.6 29-51.7 7.6 13.4 15.2 26.9 22.7 40.4 8.2 14.7 16.2 29.5 24.3 44.2 9.6-17.1 19-34.1 28.3-51.1 7.6-13.7 21-38 28.5-51.7z"/>
</svg>